<?xml version="1.0" standalone="no"?>
<!DOCTYPE svg PUBLIC "-//W3C//DTD SVG 20010904//EN"
 "http://www.w3.org/TR/2001/REC-SVG-20010904/DTD/svg10.dtd">
<svg version="1.0" xmlns="http://www.w3.org/2000/svg"
 width="900.000000pt" height="900.000000pt" viewBox="0 0 900.000000 900.000000"
 preserveAspectRatio="xMidYMid meet">
<metadata>
Created by potrace 1.10, written by Peter Selinger 2001-2011
</metadata>
<g transform="translate(0.000000,900.000000) scale(0.100000,-0.100000)"
fill="#000000" stroke="none">
<path d="M4135 8991 c9 -16 -9 -20 -131 -30 -158 -13 -245 -27 -484 -78 -143
-30 -323 -80 -460 -128 -41 -15 -86 -29 -100 -32 -14 -3 -34 -12 -45 -19 -11
-8 -27 -14 -36 -14 -10 0 -30 -6 -46 -14 -15 -8 -53 -25 -83 -37 -75 -30 -211
-92 -295 -136 -144 -75 -181 -95 -210 -114 -16 -10 -39 -23 -50 -29 -11 -6
-33 -19 -50 -30 -16 -11 -37 -23 -45 -27 -8 -4 -44 -27 -80 -52 -36 -24 -85
-58 -110 -75 -382 -255 -849 -724 -1116 -1119 -80 -119 -134 -203 -144 -222
-6 -11 -19 -33 -30 -50 -11 -16 -24 -39 -30 -50 -6 -11 -27 -49 -46 -85 -49
-88 -107 -203 -137 -270 -14 -30 -39 -85 -56 -123 -17 -37 -31 -73 -31 -80 0
-7 -7 -22 -15 -33 -8 -10 -15 -28 -15 -39 0 -11 -6 -29 -14 -40 -7 -11 -16
-31 -19 -45 -3 -14 -17 -59 -32 -100 -99 -283 -177 -636 -208 -945 -16 -158
-16 -812 0 -970 31 -309 109 -662 208 -945 15 -41 29 -86 32 -100 3 -14 12
-34 19 -45 8 -11 14 -27 14 -36 0 -10 6 -30 14 -46 7 -15 21 -45 30 -66 8 -20
22 -52 30 -70 8 -17 26 -59 41 -92 41 -93 151 -304 186 -360 10 -16 23 -39 29
-50 6 -11 19 -33 30 -50 11 -16 23 -37 27 -45 4 -8 27 -44 52 -80 24 -36 58
-85 75 -110 251 -376 730 -855 1106 -1106 25 -17 74 -51 110 -75 36 -25 72
-48 80 -52 8 -4 29 -16 45 -27 17 -11 39 -24 50 -30 11 -6 34 -19 50 -29 56
-35 267 -145 360 -186 33 -15 76 -34 95 -43 19 -8 51 -22 70 -30 19 -8 48 -21
63 -28 16 -8 36 -14 46 -14 9 0 25 -6 36 -14 11 -7 31 -16 45 -19 14 -3 59
-17 100 -32 137 -48 317 -98 460 -128 381 -81 500 -92 970 -92 470 0 589 11
970 92 143 30 323 80 460 128 41 15 86 29 100 32 14 3 34 12 45 19 11 8 29 14
40 14 11 0 29 7 39 15 11 8 26 15 33 15 7 0 43 14 80 31 38 17 93 43 123 56
80 37 206 100 275 139 33 18 69 38 80 44 11 6 34 19 50 30 17 11 39 24 50 30
31 17 55 32 120 76 33 22 83 56 110 74 386 260 858 732 1111 1110 17 25 51 74
75 110 25 36 48 72 52 80 4 8 16 29 27 45 11 17 24 39 30 50 6 11 19 34 29 50
21 33 56 97 118 220 43 82 75 153 138 300 10 22 24 53 31 68 8 16 14 36 14 46
0 9 6 25 14 36 7 11 16 31 19 45 3 14 17 59 31 100 106 305 183 659 207 944
10 122 14 140 30 131 5 -4 9 135 9 355 0 220 -4 359 -9 355 -16 -9 -20 9 -30
131 -13 158 -27 245 -78 484 -30 143 -80 323 -128 460 -15 41 -29 86 -32 100
-3 14 -12 34 -19 45 -8 11 -14 27 -14 36 0 10 -6 30 -14 46 -7 15 -21 45 -30
66 -8 20 -22 52 -30 70 -8 17 -26 59 -41 92 -31 70 -88 184 -139 275 -19 36
-40 74 -46 85 -6 11 -19 34 -30 50 -11 17 -24 39 -30 50 -10 19 -64 103 -144
222 -267 395 -734 864 -1116 1119 -25 17 -74 51 -110 75 -36 25 -72 48 -80 52
-8 4 -28 16 -45 27 -16 11 -39 24 -50 30 -11 6 -33 19 -50 29 -56 35 -267 145
-360 186 -33 15 -76 34 -95 43 -19 8 -51 22 -70 30 -19 8 -48 21 -63 28 -16 8
-36 14 -46 14 -9 0 -25 6 -36 14 -11 7 -31 16 -45 19 -14 3 -59 17 -100 32
-289 101 -662 183 -944 206 -122 10 -140 14 -131 30 4 5 -135 9 -355 9 -220 0
-359 -4 -355 -9z m1610 -3660 c10 -16 7 -1633 -3 -1643 -5 -5 -40 -8 -78 -6
l-69 3 -3 814 c-1 593 1 817 9 827 13 16 134 20 144 5z m419 -117 c10 -26 7
-164 -4 -185 -9 -16 -22 -19 -73 -19 -36 0 -68 5 -75 12 -13 13 -17 189 -5
201 3 4 39 7 79 7 56 0 73 -3 78 -16z m-2276 -436 c16 -16 16 -120 0 -136 -9
-9 -96 -12 -332 -12 -324 0 -367 3 -365 24 1 6 32 39 70 74 l68 62 274 0 c199
0 276 -3 285 -12z m1230 -6 c10 -10 24 -16 31 -14 7 2 44 -26 82 -64 l69 -68
0 -382 c0 -430 8 -394 -83 -394 -80 0 -81 2 -82 137 -1 65 -2 146 -3 181 l-2
62 -289 0 c-191 0 -292 -4 -296 -10 -8 -14 -6 -355 2 -377 6 -14 41 -15 359
-11 194 3 358 1 366 -3 9 -7 -7 -27 -62 -79 l-75 -69 -272 -1 c-325 0 -325 0
-425 102 l-68 68 0 168 c0 132 3 172 15 188 8 10 15 26 15 36 0 9 32 46 71 82
l71 66 294 0 294 0 0 123 0 122 -359 0 c-198 0 -363 4 -368 8 -4 5 25 40 66
78 l74 69 279 0 c255 0 279 -1 296 -18z m1047 -4 c3 -13 4 -261 3 -553 l-3
-530 -80 0 -80 0 -3 544 c-2 429 0 546 10 553 7 4 43 8 80 8 62 0 68 -2 73
-22z m-2152 -77 l77 -79 0 -370 c0 -426 9 -392 -100 -392 -39 0 -62 4 -65 13
-6 15 -13 879 -7 895 7 21 17 14 95 -67z m-119 -317 c9 -22 7 -117 -2 -131 -6
-10 -79 -13 -287 -15 l-280 -3 0 -257 c0 -141 -4 -260 -8 -264 -5 -5 -42 26
-83 67 l-74 76 0 166 c0 141 3 172 19 211 20 46 25 52 104 124 l47 42 279 0
c245 0 280 -2 285 -16z m-969 -609 l0 -80 -69 -3 c-81 -3 -86 1 -86 76 0 84 9
93 88 90 l67 -3 0 -80z m1132 55 c1 -8 -30 -43 -69 -77 l-72 -63 -283 0 -283
0 -5 23 c-4 13 -5 46 -3 73 l3 49 280 5 c407 8 429 8 432 -10z"/>
</g>
</svg>
